<svg width="266.584" height="18mm" viewBox="0 0 70.534 18" xmlns="http://www.w3.org/2000/svg"><g style="fill:#b3ff80"><path style="color:#000;font-style:normal;font-variant:normal;font-weight:700;font-stretch:normal;font-size:45.4352px;line-height:1.25;font-family:Gotham;-inkscape-font-specification:Gotham;font-variant-ligatures:normal;font-variant-position:normal;font-variant-caps:normal;font-variant-numeric:normal;font-variant-alternates:normal;font-variant-east-asian:normal;font-feature-settings:normal;font-variation-settings:normal;text-indent:0;text-align:start;text-decoration:none;text-decoration-line:none;text-decoration-style:solid;text-decoration-color:#000;letter-spacing:0;word-spacing:0;text-transform:none;writing-mode:lr-tb;direction:ltr;text-orientation:mixed;dominant-baseline:auto;baseline-shift:baseline;text-anchor:start;white-space:normal;shape-padding:0;shape-margin:0;inline-size:0;clip-rule:nonzero;display:inline;overflow:visible;visibility:visible;isolation:auto;mix-blend-mode:normal;color-interpolation:sRGB;color-interpolation-filters:linearRGB;solid-color:#000;solid-opacity:1;vector-effect:none;fill:#ff601b;fill-opacity:1;fill-rule:nonzero;stroke:none;stroke-width:.365001;stroke-linecap:butt;stroke-linejoin:miter;stroke-miterlimit:4;stroke-dasharray:none;stroke-dashoffset:0;stroke-opacity:1;color-rendering:auto;image-rendering:auto;shape-rendering:auto;text-rendering:auto;enable-background:accumulate;stop-color:#000" d="M115.86 97.76v.123c.006 1.525.281 2.962.832 4.308l.004.01c.573 1.33 1.364 2.5 2.368 3.503l.004.002c1.024.982 2.233 1.771 3.623 2.364l.004.002h.002c1.395.575 2.921.862 4.58.862 1.657 0 3.186-.287 4.582-.862h.002l.004-.002c1.412-.594 2.622-1.394 3.627-2.4a11.271 11.271 0 0 0 2.402-3.537c.563-1.327.848-2.743.86-4.246l.001-.127h-5.145l-.002.123a6.848 6.848 0 0 1-.476 2.513l-.014.036-.03.03a6.281 6.281 0 0 1-1.195 1.918v.031l-.05.05a5.632 5.632 0 0 1-1.967 1.4 6.28 6.28 0 0 1-2.539.506c-.935 0-1.787-.167-2.56-.503l-.032-.014-.028-.027a6.817 6.817 0 0 1-1.945-1.394l-.004-.002-.002-.002a6.66 6.66 0 0 1-1.31-2.084l-.003-.008-.012-.026v-.037a7.147 7.147 0 0 1-.434-2.386v-.123z" transform="matrix(.60145 0 0 .60145 -61.122 -47.518)"/><path style="font-style:normal;font-variant:normal;font-weight:900;font-stretch:normal;font-size:45.3525px;line-height:1.25;font-family:Metropolis;-inkscape-font-specification:'Metropolis Heavy';letter-spacing:0;word-spacing:0;fill:#081c4f;fill-opacity:1;stroke-width:.282485" d="M124.637 83.864c-1.638 0-2.926.457-3.597 1.691v-1.664h-5.18v10.417h5.147v-4.62c0-1.073.771-1.851 1.925-1.851s1.907.832 1.923 2.013v7.918h5.147v-8.08c0-1.073.65-1.851 1.804-1.851 1.155 0 1.804.832 1.804 2.013v4.458h5.145v-5.397c0-3.14-2.362-5.047-5.26-5.047-2.04 0-3.705.564-4.51 1.96-.94-1.423-2.55-1.96-4.348-1.96z" transform="matrix(.60145 0 0 .60145 -61.122 -47.518)"/></g><path d="M216.318 67.22c2.48 0 3.985-1.205 3.985-3.1 0-2.16-1.913-2.71-3.577-3.081-.921-.213-1.329-.266-1.329-.567 0-.266.32-.514.797-.514.868 0 1.913.478 2.675.974l1.15-2.09c-1.044-.69-2.408-1.204-3.825-1.204-2.39 0-3.825 1.382-3.825 3.153 0 2.16 1.86 2.568 3.524 2.922.85.177 1.382.354 1.382.673 0 .3-.23.46-.868.46-.974 0-2.285-.46-3.17-1.08l-1.276 2.072c1.116.868 2.763 1.382 4.357 1.382zM243.92 64.67c-.868 0-1.541-.567-1.807-1.435h6.482c0-3.525-1.736-5.597-4.675-5.597-2.834 0-4.835 1.966-4.835 4.764 0 2.816 2.054 4.818 4.976 4.818 1.4 0 2.958-.585 3.772-1.417l-1.877-1.895c-.602.478-1.346.761-2.036.761zm0-4.481c.743 0 1.328.495 1.576 1.257h-3.33c.301-.762.939-1.257 1.753-1.257zM253.851 67.22c2.48 0 3.985-1.205 3.985-3.1 0-2.16-1.913-2.71-3.578-3.081-.92-.213-1.328-.266-1.328-.567 0-.266.319-.514.797-.514.868 0 1.913.478 2.674.974l1.152-2.09c-1.045-.69-2.41-1.204-3.826-1.204-2.39 0-3.825 1.382-3.825 3.153 0 2.16 1.86 2.568 3.524 2.922.85.177 1.381.354 1.381.673 0 .3-.23.46-.867.46-.974 0-2.285-.46-3.17-1.08l-1.276 2.072c1.116.868 2.763 1.382 4.357 1.382z" style="font-weight:900;font-size:18.5325px;line-height:1.25;font-family:Metropolis;-inkscape-font-specification:'Metropolis Heavy';word-spacing:0;fill:#081c4f;fill-opacity:1;stroke-width:.44276" transform="matrix(.87111 0 0 .87111 -184.643 -47.271)"/><path d="M265.605 57.638c-1.149 0-2.112.223-2.705.964v-4.337h-3.577V67.22h3.577v-5.375c0-.852.574-1.464 1.371-1.464.853 0 1.446.649 1.446 1.575v5.264h3.41v-6.098c0-2.168-1.464-3.484-3.522-3.484zM276.84 57.638v5.375c0 .852-.574 1.464-1.37 1.464-.853 0-1.446-.649-1.446-1.576v-5.263h-3.41v6.097c0 2.169 1.464 3.485 3.52 3.485 1.15 0 2.113-.223 2.706-.964v.964h3.577v-9.582zM288.539 57.638c-1.242 0-2.298.278-3.058 1.13v-4.503h-3.577V67.22h3.577v-1.131c.76.853 1.816 1.13 3.058 1.13 2.576 0 4.392-1.853 4.392-4.8 0-2.928-1.816-4.78-4.392-4.78zm-1.13 6.839c-1.131 0-1.928-.853-1.928-2.057 0-1.186.797-2.039 1.927-2.039 1.242 0 2.113.853 2.113 2.039 0 1.204-.87 2.057-2.113 2.057z" style="font-weight:900;font-size:18.5325px;line-height:1.25;font-family:Metropolis;-inkscape-font-specification:'Metropolis Heavy';word-spacing:0;fill:#081c4f;fill-opacity:1;stroke-width:.463314" transform="matrix(.87111 0 0 .87111 -184.643 -47.271)"/></svg>