<?xml version="1.0" encoding="UTF-8" standalone="no"?>
<!-- Created with Inkscape (http://www.inkscape.org/) -->

<svg
   width="26.863mm"
   height="27.991mm"
   version="1.1"
   viewBox="0 0 26.863 27.991"
   id="svg10"
   sodipodi:docname="smeshub-brandmark.svg"
   inkscape:version="1.1.1 (3bf5ae0d25, 2021-09-20)"
   xmlns:inkscape="http://www.inkscape.org/namespaces/inkscape"
   xmlns:sodipodi="http://sodipodi.sourceforge.net/DTD/sodipodi-0.dtd"
   xmlns="http://www.w3.org/2000/svg"
   xmlns:svg="http://www.w3.org/2000/svg">
  <defs
     id="defs14" />
  <sodipodi:namedview
     id="namedview12"
     pagecolor="#ffffff"
     bordercolor="#666666"
     borderopacity="1.0"
     inkscape:pageshadow="2"
     inkscape:pageopacity="0.0"
     inkscape:pagecheckerboard="0"
     inkscape:document-units="mm"
     showgrid="false"
     inkscape:zoom="0.72854366"
     inkscape:cx="-360.30785"
     inkscape:cy="173.63407"
     inkscape:window-width="1920"
     inkscape:window-height="1057"
     inkscape:window-x="-8"
     inkscape:window-y="-8"
     inkscape:window-maximized="1"
     inkscape:current-layer="svg10" />
  <g
     transform="translate(-154.82 -132.8)"
     id="g8">
    <path
       d="m154.82 147.68v0.14358c7e-3 1.7886 0.33055 3.4752 0.97543 5.0532l4e-3 0.0123c0.67381 1.56 1.6013 2.9326 2.7795 4.1106l4e-3 1e-3c1.2016 1.1536 2.6194 2.0782 4.2496 2.7742 1e-3 1e-3 4e-3 2e-3 6e-3 2e-3h3e-3c1.6372 0.67416 3.4272 1.0104 5.3714 1.0104 1.9459 0 3.7402-0.33619 5.3774-1.0104h2e-3l6e-3 -2e-3c1.6563-0.69603 3.0745-1.6358 4.2542-2.8155 1.203-1.203 2.1456-2.5866 2.818-4.1494 0.66146-1.5586 0.99483-3.2191 1.0086-4.9816l3e-3 -0.14887h-6.0357l-3e-3 0.14358c-8e-3 1.0418-0.19014 2.0242-0.5595 2.9489l-0.0166 0.0413-0.0346 0.036c-0.3362 0.84314-0.80328 1.5903-1.4012 2.2504v0.0356l-0.0593 0.0593c-0.6283 0.69886-1.3974 1.2446-2.3082 1.6415-0.90946 0.39687-1.9004 0.59372-2.9782 0.59372-1.0982 0-2.0973-0.19543-3.0039-0.58984l-0.0374-0.0152-0.0328-0.0328c-0.85725-0.41628-1.6235-0.95391-2.2821-1.6344l-6e-3 -3e-3 -1e-3 -3e-3c-0.65017-0.69709-1.1631-1.5131-1.5378-2.4444l-3e-3 -0.01-0.0138-0.0303v-0.0441c-0.32103-0.88195-0.49883-1.8108-0.50976-2.7986v-0.14499z"
       fill="#ff601b"
       id="path2" />
    <path
       d="m172.9 132.8c-2.2878 0.0123-4.5325 0.97579-6.1228 2.6169h-1e-3v1e-3c-1.3134 1.3338-2.1611 3.0924-2.4006 4.9456-0.0991 0.74436-0.0526 1.4594-0.0688 2.128v0.0109c-6e-3 1.5833-7e-3 3.1655-0.01 4.7473l-1e-3 0.43392h6.0374l-3e-3 -6.3747v-0.01c-7e-3 -0.44944 0.17639-0.92075 0.45332-1.33 0.45614-0.6544 1.2086-1.112 1.99-1.1494l7e-3 -1e-3h8e-3c0.73342-0.0607 1.4968 0.19156 2.0147 0.6985l4e-3 6e-3 6e-3 4e-3c0.46708 0.43285 0.78952 1.0407 0.83785 1.6566 0.0109 0.46284 0.0152 0.92745 0.018 1.3931l1e-3 1.0474h6.0152l-1e-3 -1.0516c-2e-3 -0.61454-0.01-1.2319-0.0384-1.8521l-1e-3 -0.01v-0.01c-0.1584-1.7336-0.84209-3.4103-1.9597-4.7526h-1e-3c-0.83079-0.99237-1.874-1.8136-3.0632-2.3523-1.1631-0.53482-2.4391-0.80751-3.7179-0.79375z"
       fill="#081f4f"
       id="path4" />
    <path
       d="m160.73 140.95c0.49177 1.5932-0.3997 3.2837-1.9939 3.7772-1.5932 0.49178-3.284-0.39969-3.7761-1.9928-0.49318-1.5942 0.3997-3.2851 1.9928-3.7772 1.5928-0.49318 3.2837 0.3997 3.7772 1.9928z"
       fill="#081f4f"
       id="path6" />
  </g>
</svg>
